<svg aria-hidden="true" style="position: absolute; width: 0; height: 0; overflow: hidden;" version="1.1" xmlns="http://www.w3.org/2000/svg" xmlns:xlink="http://www.w3.org/1999/xlink">
<defs>
<symbol id="icon-email-black" viewBox="0 0 12 16">
<path d="M10 4h-8c-0.55 0-0.995 0.45-0.995 1l-0.005 6c0 0.55 0.45 1 1 1h8c0.55 0 1-0.45 1-1v-6c0-0.55-0.45-1-1-1zM9.8 6.125l-3.535 2.209c-0.075 0.047-0.167 0.075-0.265 0.075s-0.19-0.028-0.267-0.076l0.002 0.001-3.535-2.209c-0.126-0.075-0.209-0.211-0.209-0.366 0-0.235 0.19-0.425 0.425-0.425 0.087 0 0.168 0.026 0.236 0.071l3.348 2.094 3.35-2.095c0.066-0.044 0.147-0.070 0.234-0.070 0.235 0 0.425 0.19 0.425 0.425 0 0.155-0.083 0.29-0.207 0.365l-0.002 0.001z"></path>
</symbol>
<symbol id="icon-Frame" viewBox="0 0 16 16">
<path d="M16 1.333l-16 7.5 5.113 1.578 7.887-6.161-5.999 6.744 0.005 0.002-0.006-0.002v3.673l2.867-2.788 3.633 1.121 2.499-11.667z"></path>
</symbol>
<symbol id="icon-person-black" viewBox="0 0 16 16">
<path d="M8 8c1.473 0 2.667-1.194 2.667-2.667s-1.194-2.667-2.667-2.667v0c-1.473 0-2.667 1.194-2.667 2.667s1.194 2.667 2.667 2.667v0zM8 9.333c-1.78 0-5.333 0.893-5.333 2.667v0.667c0 0.366 0.3 0.667 0.667 0.667h9.333c0.366 0 0.667-0.3 0.667-0.667v-0.667c0-1.773-3.554-2.667-5.333-2.667z"></path>
</symbol>
<symbol id="icon-phone-black" viewBox="0 0 12 16">
<path d="M9.817 9.243l-1.225-0.14c-0.033-0.004-0.072-0.007-0.112-0.007-0.266 0-0.506 0.108-0.68 0.282l-0.887 0.887c-1.376-0.71-2.47-1.803-3.161-3.139l-0.019-0.040 0.893-0.893c0.174-0.174 0.281-0.414 0.281-0.679 0-0.039-0.002-0.078-0.007-0.116l0 0.005-0.14-1.216c-0.058-0.483-0.465-0.854-0.959-0.854-0 0-0.001 0-0.001 0h-0.835c-0.545 0-0.999 0.453-0.965 0.999 0.255 4.12 3.551 7.411 7.666 7.667 0.545 0.033 0.999-0.42 0.999-0.965v-0.835c0-0.002 0-0.003 0-0.005 0-0.49-0.369-0.895-0.845-0.95l-0.004-0z"></path>
</symbol>
</defs>
</svg>
